<svg xmlns="http://www.w3.org/2000/svg" viewBox="0 0 800 200">
  <!-- Blue Circular Dots Pattern -->
  <g fill="#1876C0">
    <!-- Outer Circle Dots -->
    <circle cx="90" cy="100" r="4" />
    <circle cx="82" cy="75" r="4" />
    <circle cx="70" cy="55" r="4" />
    <circle cx="55" cy="40" r="4" />
    <circle cx="40" cy="30" r="4" />
    <circle cx="25" cy="35" r="4" />
    <circle cx="15" cy="50" r="4" />
    <circle cx="10" cy="70" r="4" />
    <circle cx="12" cy="90" r="4" />
    <circle cx="20" cy="110" r="4" />
    <circle cx="35" cy="130" r="4" />
    <circle cx="55" cy="145" r="4" />
    <circle cx="75" cy="150" r="4" />
    <circle cx="95" cy="145" r="4" />
    <circle cx="112" cy="135" r="4" />
    <circle cx="125" cy="115" r="4" />
    <circle cx="130" cy="90" r="4" />
    <circle cx="125" cy="70" r="4" />
    <circle cx="115" cy="50" r="4" />
    <circle cx="100" cy="35" r="4" />
    
    <!-- Middle Circle Dots -->
    <circle cx="90" cy="85" r="3.5" />
    <circle cx="80" cy="65" r="3.5" />
    <circle cx="65" cy="50" r="3.5" />
    <circle cx="45" cy="45" r="3.5" />
    <circle cx="30" cy="50" r="3.5" />
    <circle cx="20" cy="65" r="3.5" />
    <circle cx="25" cy="85" r="3.5" />
    <circle cx="35" cy="105" r="3.5" />
    <circle cx="55" cy="120" r="3.5" />
    <circle cx="75" cy="125" r="3.5" />
    <circle cx="95" cy="120" r="3.5" />
    <circle cx="110" cy="105" r="3.5" />
    <circle cx="115" cy="85" r="3.5" />
    <circle cx="110" cy="65" r="3.5" />
    <circle cx="95" cy="50" r="3.5" />
    
    <!-- Inner Circle Dots -->
    <circle cx="80" cy="80" r="3" />
    <circle cx="70" cy="65" r="3" />
    <circle cx="55" cy="60" r="3" />
    <circle cx="40" cy="65" r="3" />
    <circle cx="35" cy="80" r="3" />
    <circle cx="45" cy="95" r="3" />
    <circle cx="60" cy="105" r="3" />
    <circle cx="75" cy="105" r="3" />
    <circle cx="90" cy="95" r="3" />
    <circle cx="95" cy="80" r="3" />
    <circle cx="90" cy="65" r="3" />
  </g>
  
  <!-- BIOVERSE Text -->
  <text x="170" y="125" font-family="Arial, sans-serif" font-weight="bold" font-size="84" fill="#333333">BIOVERSE</text>
  
  <!-- Tagline -->
  <text x="170" y="160" font-family="Arial, sans-serif" font-size="24" fill="#666666">Vibrant Living Backed by Science</text>
</svg> 